#!OML:ASF E:\emotionWalksFemale\Project 1\Capture day 1\Session 1\Female1.ASF
:FULLY-SPECIFIED
:DEGREES
1676
root 6.99428 15.3443 39.7706 181.617 46.1229 184.116
lowerback 7.33508 0.87111 -0.521455
upperback -3.61215 1.08327 -0.792443
thorax -7.91694 0.54593 -0.69576
lowerneck -9.86236 2.06126 -0.378865
upperneck 17.8865 3.26706 0.0482112
head 7.08943 1.69976 0.389918
rclavicle -7.93648e-014 -1.19271e-014
rhumerus -46.1967 8.76907 -83.9125
rradius 31.4669
rwrist 18.379
rhand -2.57263 -54.3878
rfingers 7.12502
rthumb 23.1241 -83.0201
lclavicle -7.93648e-014 -1.19271e-014
lhumerus -40.8661 -4.72868 81.1597
lradius 35.6004
lwrist -18.4591
lhand -6.82635 -32.5588
lfingers 7.12502
lthumb 19.0378 -3.4705
rfemur -6.88001 22.9195 17.1825
rtibia 21.4122
rfoot -13.6336 -9.08064
rtoes -23.2878
lfemur -0.476366 -21.7683 -14.2675
ltibia 34.3848
lfoot 13.3419 -30.4008
ltoes 51.6018
1677
root 7.07676 15.3054 39.8091 181.641 45.5013 184.15
lowerback 7.32476 0.984645 -0.369689
upperback -3.59776 1.25028 -0.809556
thorax -7.89063 0.619088 -0.821968
lowerneck -9.89574 2.16601 -0.399601
upperneck 17.7022 3.3944 0.101963
head 7.03396 1.76202 0.420137
rclavicle 9.83984e-015 -5.56597e-015
rhumerus -45.6714 9.2819 -83.9501
rradius 31.4638
rwrist 18.3119
rhand -2.699 -54.3266
rfingers 7.12502
rthumb 23.0028 -82.9741
lclavicle 9.83984e-015 -5.56597e-015
lhumerus -41.0838 -4.22419 80.0361
lradius 36.1874
lwrist -15.835
lhand -7.31546 -32.3193
lfingers 7.12502
lthumb 18.5674 -3.18543
rfemur -6.24266 22.441 17.6974
rtibia 20.6994
rfoot -13.7407 -9.35343
rtoes -23.2056
lfemur -0.682844 -20.0252 -13.9728
ltibia 35.1668
lfoot 15.8499 -31.0348
ltoes 53.6384
1678
root 7.16638 15.3697 39.8304 181.656 44.852 184.193
lowerback 7.31138 1.0905 -0.100253
upperback -3.56794 1.41728 -0.852973
thorax -7.84143 0.685456 -1.04138
lowerneck -9.92364 2.25453 -0.2882
upperneck 17.5667 3.51792 -0.0434299
head 6.99966 1.81492 0.364718
rclavicle -6.74874e-014 1.19271e-014
rhumerus -45.2399 9.6468 -83.7994
rradius 31.4616
rwrist 18.4778
rhand -3.00189 -53.9701
rfingers 7.12502
rthumb 22.7121 -82.6534
lclavicle -6.74874e-014 1.19271e-014
lhumerus -40.6563 -2.41593 78.6042
lradius 36.0908
lwrist -14.5911
lhand -7.51431 -32.5452
lfingers 7.12502
lthumb 18.3761 -3.39318
rfemur -5.28914 21.746 18.2921
rtibia 19.3977
rfoot -13.0625 -9.91215
rtoes -25.4208
lfemur -1.78149 -22.4866 -13.0179
ltibia 36.0865
lfoot 16.3717 -29.0069
ltoes 55.6242
1679
root 7.24129 15.3147 39.8722 181.83 44.1829 184.41
lowerback 7.3333 1.20145 0.182967
upperback -3.59049 1.59754 -0.828394
thorax -7.86859 0.759286 -1.20061
lowerneck -9.84552 2.33853 -0.227455
upperneck 17.3899 3.64004 -0.165738
head 6.93227 1.86738 0.322941
rclavicle -2.37051e-014 0
rhumerus -45.0392 10.3483 -83.7726
rradius 31.7302
rwrist 18.1578
rhand -2.86632 -53.9913
rfingers 7.12502
rthumb 22.8423 -82.6586
lclavicle -2.37051e-014 0
lhumerus -40.9805 -0.704734 77.1417
lradius 36.6862
lwrist -13.317
lhand -7.12243 -32.6669
lfingers 7.12502
lthumb 18.7531 -3.55083
rfemur -4.90026 21.3065 18.9736
rtibia 18.5618
rfoot -11.867 -11.0643
rtoes -30.3319
lfemur -2.13998 -23.4337 -12.5391
ltibia 36.7991
lfoot 18.3344 -27.1997
ltoes 58.3237
1680
root 7.32514 15.3167 39.9109 181.935 43.6751 184.556
lowerback 7.43233 1.332 0.278789
upperback -3.63856 1.78603 -0.785045
thorax -7.97267 0.846761 -1.23909
lowerneck -9.68695 2.46072 -0.422634
upperneck 17.0759 3.78642 0.0537618
head 6.79477 1.94334 0.431508
rclavicle 3.11098e-014 1.74931e-014
rhumerus -44.5696 10.7813 -83.6617
rradius 31.949
rwrist 18.1205
rhand -2.78753 -54.1942
rfingers 7.12502
rthumb 22.9179 -82.8521
lclavicle 3.11098e-014 1.74931e-014
lhumerus -41.6677 0.800392 75.6611
lradius 37.6524
lwrist -11.3187
lhand -6.87417 -32.6959
lfingers 7.12502
lthumb 18.9918 -3.60315
rfemur -4.01929 21.2822 19.6108
rtibia 17.116
rfoot -10.8782 -11.8681
rtoes -32.2592
lfemur -2.61653 -22.9301 -11.8693
ltibia 37.5421
lfoot 17.2697 -28.8306
ltoes 56.1752
1681
root 7.40666 15.3089 39.9475 181.867 43.4085 184.584
lowerback 7.58117 1.51649 0.241646
upperback -3.64559 2.03098 -0.749865
thorax -8.0644 0.968137 -1.22091
lowerneck -9.72452 2.51873 -0.529327
upperneck 17.0255 3.85524 0.202866
head 6.77963 1.98208 0.502597
rclavicle -5.73991e-014 -3.18055e-015
rhumerus -43.9197 11.0701 -83.4629
rradius 31.9486
rwrist 18.537
rhand -3.02386 -53.4554
rfingers 7.12502
rthumb 22.6911 -82.1413
lclavicle -5.73991e-014 -3.18055e-015
lhumerus -42.3173 1.92396 74.3358
lradius 38.5965
lwrist -9.05327
lhand -7.3824 -32.5467
lfingers 7.12502
lthumb 18.503 -3.40673
rfemur -3.78348 21.1898 20.1317
rtibia 17.2613
rfoot -10.9964 -12.1689
rtoes -32.3011
lfemur -2.43657 -22.952 -11.8681
ltibia 37.8667
lfoot 15.43 -29.7026
ltoes 53.0623
1682
root 7.48684 15.3294 39.9769 181.76 43.0657 184.539
lowerback 7.67585 1.68944 0.174328
upperback -3.6354 2.2574 -0.709643
thorax -8.10835 1.08263 -1.17642
lowerneck -9.71373 2.64467 -0.268749
upperneck 17.0266 4.06597 -0.214083
head 6.79226 2.06719 0.34486
rclavicle -6.55989e-015 2.62396e-014
rhumerus -43.3305 11.4945 -83.2233
rradius 32.0339
rwrist 18.7056
rhand -2.90546 -53.0025
rfingers 7.12502
rthumb 22.8047 -81.6745
lclavicle -6.55989e-015 2.62396e-014
lhumerus -43.0721 2.91292 73.1158
lradius 39.691
lwrist -7.32638
lhand -8.14082 -32.3597
lfingers 7.12502
lthumb 17.7733 -3.15196
rfemur -3.7602 20.6241 20.5939
rtibia 17.6245
rfoot -10.7847 -12.2446
rtoes -34.6045
lfemur -2.46882 -23.4884 -11.5984
ltibia 38.1006
lfoot 16.4141 -28.2901
ltoes 54.8912
